<?xml version="1.0" encoding="UTF-8" standalone="no"?>
<!DOCTYPE svg PUBLIC "-//W3C//DTD SVG 1.1//EN"
 "http://www.w3.org/Graphics/SVG/1.1/DTD/svg11.dtd">
<!-- Generated by graphviz version 2.40.1 (20161225.0304)
 -->
<!-- Title: dependencies Pages: 1 -->
<svg width="504pt" height="284pt"
 viewBox="0.00 0.00 504.00 284.00" xmlns="http://www.w3.org/2000/svg" xmlns:xlink="http://www.w3.org/1999/xlink">
<g id="graph0" class="graph" transform="scale(1 1) rotate(0) translate(4 280)">
<title>dependencies</title>
<polygon fill="#ffffff" stroke="transparent" points="-4,4 -4,-280 500,-280 500,4 -4,4"/>
<text text-anchor="start" x="227.0091" y="-42.4" font-family="sans-serif" font-weight="bold" font-size="14.00" fill="#000000">Legend</text>
<polygon fill="#ffffb3" stroke="transparent" points="14,-10 14,-30 34,-30 34,-10 14,-10"/>
<text text-anchor="start" x="37.629" y="-15.4" font-family="sans-serif" font-size="14.00" fill="#000000"> &#160;Declarations</text>
<polygon fill="#8dd3c7" stroke="transparent" points="127,-10 127,-30 147,-30 147,-10 127,-10"/>
<text text-anchor="start" x="150.7251" y="-15.4" font-family="sans-serif" font-size="14.00" fill="#000000"> &#160;Module</text>
<polygon fill="#80b1d3" stroke="transparent" points="213,-10 213,-30 233,-30 233,-10 213,-10"/>
<text text-anchor="start" x="236.7812" y="-15.4" font-family="sans-serif" font-size="14.00" fill="#000000"> &#160;Bootstrap</text>
<polygon fill="#fdb462" stroke="transparent" points="310,-10 310,-30 330,-30 330,-10 310,-10"/>
<text text-anchor="start" x="333.6732" y="-15.4" font-family="sans-serif" font-size="14.00" fill="#000000"> &#160;Providers</text>
<polygon fill="#fb8072" stroke="transparent" points="406,-10 406,-30 426,-30 426,-10 406,-10"/>
<text text-anchor="start" x="429.7258" y="-15.4" font-family="sans-serif" font-size="14.00" fill="#000000"> &#160;Exports</text>
<g id="clust1" class="cluster">
<title>cluster_AboutModule</title>
<polygon fill="none" stroke="#000000" stroke-dasharray="1,5" points="32,-70 32,-268 464,-268 464,-70 32,-70"/>
</g>
<g id="clust2" class="cluster">
<title>cluster_AboutModule_declarations</title>
<polygon fill="none" stroke="#000000" points="324,-78 324,-130 456,-130 456,-78 324,-78"/>
</g>
<g id="clust4" class="cluster">
<title>cluster_AboutModule_imports</title>
<polygon fill="none" stroke="#000000" points="40,-78 40,-130 316,-130 316,-78 40,-78"/>
</g>
<g id="clust5" class="cluster">
<title>cluster_AboutModule_exports</title>
<polygon fill="none" stroke="#000000" points="170,-208 170,-260 306,-260 306,-208 170,-208"/>
</g>
<!-- AboutComponent -->
<g id="node1" class="node">
<title>AboutComponent</title>
<polygon fill="#ffffb3" stroke="#000000" points="448.3301,-122 331.6699,-122 331.6699,-86 448.3301,-86 448.3301,-122"/>
<text text-anchor="middle" x="390" y="-99.8" font-family="Times,serif" font-size="14.00" fill="#000000">AboutComponent</text>
</g>
<!-- AboutModule -->
<g id="node2" class="node">
<title>AboutModule</title>
<polygon fill="#8dd3c7" stroke="#000000" points="285.0481,-187 282.0481,-191 261.0481,-191 258.0481,-187 190.9519,-187 190.9519,-151 285.0481,-151 285.0481,-187"/>
<text text-anchor="middle" x="238" y="-164.8" font-family="Times,serif" font-size="14.00" fill="#000000">AboutModule</text>
</g>
<!-- AboutComponent&#45;&gt;AboutModule -->
<g id="edge1" class="edge">
<title>AboutComponent&#45;&gt;AboutModule</title>
<path fill="none" stroke="#000000" d="M390,-122.1061C390,-141.3391 390,-169 390,-169 390,-169 295.2605,-169 295.2605,-169"/>
<polygon fill="#000000" stroke="#000000" points="295.2606,-165.5001 285.2605,-169 295.2605,-172.5001 295.2606,-165.5001"/>
</g>
<!-- AboutComponent  -->
<g id="node5" class="node">
<title>AboutComponent </title>
<polygon fill="#fb8072" stroke="#000000" points="297.8297,-252 178.1703,-252 178.1703,-216 297.8297,-216 297.8297,-252"/>
<text text-anchor="middle" x="238" y="-229.8" font-family="Times,serif" font-size="14.00" fill="#000000">AboutComponent </text>
</g>
<!-- AboutModule&#45;&gt;AboutComponent  -->
<g id="edge4" class="edge">
<title>AboutModule&#45;&gt;AboutComponent </title>
<path fill="none" stroke="#000000" stroke-dasharray="5,2" d="M238,-187.1061C238,-187.1061 238,-205.991 238,-205.991"/>
<polygon fill="#000000" stroke="#000000" points="234.5001,-205.9909 238,-215.991 241.5001,-205.991 234.5001,-205.9909"/>
</g>
<!-- AboutRoutingModule -->
<g id="node3" class="node">
<title>AboutRoutingModule</title>
<polygon fill="#8dd3c7" stroke="#000000" points="307.6652,-122 304.6652,-126 283.6652,-126 280.6652,-122 168.3348,-122 168.3348,-86 307.6652,-86 307.6652,-122"/>
<text text-anchor="middle" x="238" y="-99.8" font-family="Times,serif" font-size="14.00" fill="#000000">AboutRoutingModule</text>
</g>
<!-- AboutRoutingModule&#45;&gt;AboutModule -->
<g id="edge2" class="edge">
<title>AboutRoutingModule&#45;&gt;AboutModule</title>
<path fill="none" stroke="#000000" d="M238,-122.1061C238,-122.1061 238,-140.991 238,-140.991"/>
<polygon fill="#000000" stroke="#000000" points="234.5001,-140.9909 238,-150.991 241.5001,-140.991 234.5001,-140.9909"/>
</g>
<!-- SidebarModule -->
<g id="node4" class="node">
<title>SidebarModule</title>
<polygon fill="#8dd3c7" stroke="#000000" points="150.3133,-122 147.3133,-126 126.3133,-126 123.3133,-122 47.6867,-122 47.6867,-86 150.3133,-86 150.3133,-122"/>
<text text-anchor="middle" x="99" y="-99.8" font-family="Times,serif" font-size="14.00" fill="#000000">SidebarModule</text>
</g>
<!-- SidebarModule&#45;&gt;AboutModule -->
<g id="edge3" class="edge">
<title>SidebarModule&#45;&gt;AboutModule</title>
<path fill="none" stroke="#000000" d="M99,-122.1061C99,-141.3391 99,-169 99,-169 99,-169 180.9409,-169 180.9409,-169"/>
<polygon fill="#000000" stroke="#000000" points="180.941,-172.5001 190.9409,-169 180.9409,-165.5001 180.941,-172.5001"/>
</g>
</g>
</svg>
