<?xml version="1.0" encoding="UTF-8" standalone="no"?>
<!DOCTYPE svg PUBLIC "-//W3C//DTD SVG 1.1//EN"
 "http://www.w3.org/Graphics/SVG/1.1/DTD/svg11.dtd">
<!-- Generated by graphviz version 2.40.1 (20161225.0304)
 -->
<!-- Title: dependencies Pages: 1 -->
<svg width="504pt" height="284pt"
 viewBox="0.00 0.00 504.00 284.00" xmlns="http://www.w3.org/2000/svg" xmlns:xlink="http://www.w3.org/1999/xlink">
<g id="graph0" class="graph" transform="scale(1 1) rotate(0) translate(4 280)">
<title>dependencies</title>
<polygon fill="#ffffff" stroke="transparent" points="-4,4 -4,-280 500,-280 500,4 -4,4"/>
<text text-anchor="start" x="227.0091" y="-42.4" font-family="sans-serif" font-weight="bold" font-size="14.00" fill="#000000">Legend</text>
<polygon fill="#ffffb3" stroke="transparent" points="14,-10 14,-30 34,-30 34,-10 14,-10"/>
<text text-anchor="start" x="37.629" y="-15.4" font-family="sans-serif" font-size="14.00" fill="#000000"> &#160;Declarations</text>
<polygon fill="#8dd3c7" stroke="transparent" points="127,-10 127,-30 147,-30 147,-10 127,-10"/>
<text text-anchor="start" x="150.7251" y="-15.4" font-family="sans-serif" font-size="14.00" fill="#000000"> &#160;Module</text>
<polygon fill="#80b1d3" stroke="transparent" points="213,-10 213,-30 233,-30 233,-10 213,-10"/>
<text text-anchor="start" x="236.7812" y="-15.4" font-family="sans-serif" font-size="14.00" fill="#000000"> &#160;Bootstrap</text>
<polygon fill="#fdb462" stroke="transparent" points="310,-10 310,-30 330,-30 330,-10 310,-10"/>
<text text-anchor="start" x="333.6732" y="-15.4" font-family="sans-serif" font-size="14.00" fill="#000000"> &#160;Providers</text>
<polygon fill="#fb8072" stroke="transparent" points="406,-10 406,-30 426,-30 426,-10 406,-10"/>
<text text-anchor="start" x="429.7258" y="-15.4" font-family="sans-serif" font-size="14.00" fill="#000000"> &#160;Exports</text>
<g id="clust1" class="cluster">
<title>cluster_CoursesModule</title>
<polygon fill="none" stroke="#000000" stroke-dasharray="1,5" points="82,-70 82,-268 414,-268 414,-70 82,-70"/>
</g>
<g id="clust2" class="cluster">
<title>cluster_CoursesModule_declarations</title>
<polygon fill="none" stroke="#000000" points="264,-78 264,-130 406,-130 406,-78 264,-78"/>
</g>
<g id="clust4" class="cluster">
<title>cluster_CoursesModule_imports</title>
<polygon fill="none" stroke="#000000" points="90,-78 90,-130 256,-130 256,-78 90,-78"/>
</g>
<g id="clust5" class="cluster">
<title>cluster_CoursesModule_exports</title>
<polygon fill="none" stroke="#000000" points="180,-208 180,-260 326,-260 326,-208 180,-208"/>
</g>
<!-- CoursesComponent -->
<g id="node1" class="node">
<title>CoursesComponent</title>
<polygon fill="#ffffb3" stroke="#000000" points="398.4341,-122 271.5659,-122 271.5659,-86 398.4341,-86 398.4341,-122"/>
<text text-anchor="middle" x="335" y="-99.8" font-family="Times,serif" font-size="14.00" fill="#000000">CoursesComponent</text>
</g>
<!-- CoursesModule -->
<g id="node2" class="node">
<title>CoursesModule</title>
<polygon fill="#8dd3c7" stroke="#000000" points="305.1514,-187 302.1514,-191 281.1514,-191 278.1514,-187 200.8486,-187 200.8486,-151 305.1514,-151 305.1514,-187"/>
<text text-anchor="middle" x="253" y="-164.8" font-family="Times,serif" font-size="14.00" fill="#000000">CoursesModule</text>
</g>
<!-- CoursesComponent&#45;&gt;CoursesModule -->
<g id="edge1" class="edge">
<title>CoursesComponent&#45;&gt;CoursesModule</title>
<path fill="none" stroke="#000000" d="M288.5544,-122.1061C288.5544,-122.1061 288.5544,-140.991 288.5544,-140.991"/>
<polygon fill="#000000" stroke="#000000" points="285.0544,-140.9909 288.5544,-150.991 292.0544,-140.991 285.0544,-140.9909"/>
</g>
<!-- CoursesComponent  -->
<g id="node4" class="node">
<title>CoursesComponent </title>
<polygon fill="#fb8072" stroke="#000000" points="317.9334,-252 188.0666,-252 188.0666,-216 317.9334,-216 317.9334,-252"/>
<text text-anchor="middle" x="253" y="-229.8" font-family="Times,serif" font-size="14.00" fill="#000000">CoursesComponent </text>
</g>
<!-- CoursesModule&#45;&gt;CoursesComponent  -->
<g id="edge3" class="edge">
<title>CoursesModule&#45;&gt;CoursesComponent </title>
<path fill="none" stroke="#000000" stroke-dasharray="5,2" d="M253,-187.1061C253,-187.1061 253,-205.991 253,-205.991"/>
<polygon fill="#000000" stroke="#000000" points="249.5001,-205.9909 253,-215.991 256.5001,-205.991 249.5001,-205.9909"/>
</g>
<!-- CoursesRoutingModule -->
<g id="node3" class="node">
<title>CoursesRoutingModule</title>
<polygon fill="#8dd3c7" stroke="#000000" points="247.7688,-122 244.7688,-126 223.7688,-126 220.7688,-122 98.2312,-122 98.2312,-86 247.7688,-86 247.7688,-122"/>
<text text-anchor="middle" x="173" y="-99.8" font-family="Times,serif" font-size="14.00" fill="#000000">CoursesRoutingModule</text>
</g>
<!-- CoursesRoutingModule&#45;&gt;CoursesModule -->
<g id="edge2" class="edge">
<title>CoursesRoutingModule&#45;&gt;CoursesModule</title>
<path fill="none" stroke="#000000" d="M224.2795,-122.1061C224.2795,-122.1061 224.2795,-140.991 224.2795,-140.991"/>
<polygon fill="#000000" stroke="#000000" points="220.7795,-140.9909 224.2795,-150.991 227.7795,-140.991 220.7795,-140.9909"/>
</g>
</g>
</svg>
