<?xml version="1.0" encoding="UTF-8" standalone="no"?>
<!DOCTYPE svg PUBLIC "-//W3C//DTD SVG 1.1//EN"
 "http://www.w3.org/Graphics/SVG/1.1/DTD/svg11.dtd">
<!-- Generated by graphviz version 2.40.1 (20161225.0304)
 -->
<!-- Title: dependencies Pages: 1 -->
<svg width="504pt" height="284pt"
 viewBox="0.00 0.00 504.00 284.00" xmlns="http://www.w3.org/2000/svg" xmlns:xlink="http://www.w3.org/1999/xlink">
<g id="graph0" class="graph" transform="scale(1 1) rotate(0) translate(4 280)">
<title>dependencies</title>
<polygon fill="#ffffff" stroke="transparent" points="-4,4 -4,-280 500,-280 500,4 -4,4"/>
<text text-anchor="start" x="227.0091" y="-42.4" font-family="sans-serif" font-weight="bold" font-size="14.00" fill="#000000">Legend</text>
<polygon fill="#ffffb3" stroke="transparent" points="14,-10 14,-30 34,-30 34,-10 14,-10"/>
<text text-anchor="start" x="37.629" y="-15.4" font-family="sans-serif" font-size="14.00" fill="#000000"> &#160;Declarations</text>
<polygon fill="#8dd3c7" stroke="transparent" points="127,-10 127,-30 147,-30 147,-10 127,-10"/>
<text text-anchor="start" x="150.7251" y="-15.4" font-family="sans-serif" font-size="14.00" fill="#000000"> &#160;Module</text>
<polygon fill="#80b1d3" stroke="transparent" points="213,-10 213,-30 233,-30 233,-10 213,-10"/>
<text text-anchor="start" x="236.7812" y="-15.4" font-family="sans-serif" font-size="14.00" fill="#000000"> &#160;Bootstrap</text>
<polygon fill="#fdb462" stroke="transparent" points="310,-10 310,-30 330,-30 330,-10 310,-10"/>
<text text-anchor="start" x="333.6732" y="-15.4" font-family="sans-serif" font-size="14.00" fill="#000000"> &#160;Providers</text>
<polygon fill="#fb8072" stroke="transparent" points="406,-10 406,-30 426,-30 426,-10 406,-10"/>
<text text-anchor="start" x="429.7258" y="-15.4" font-family="sans-serif" font-size="14.00" fill="#000000"> &#160;Exports</text>
<g id="clust1" class="cluster">
<title>cluster_PortfolioModule</title>
<polygon fill="none" stroke="#000000" stroke-dasharray="1,5" points="77,-70 77,-268 419,-268 419,-70 77,-70"/>
</g>
<g id="clust2" class="cluster">
<title>cluster_PortfolioModule_declarations</title>
<polygon fill="none" stroke="#000000" points="263,-78 263,-130 411,-130 411,-78 263,-78"/>
</g>
<g id="clust4" class="cluster">
<title>cluster_PortfolioModule_imports</title>
<polygon fill="none" stroke="#000000" points="85,-78 85,-130 255,-130 255,-78 85,-78"/>
</g>
<g id="clust5" class="cluster">
<title>cluster_PortfolioModule_exports</title>
<polygon fill="none" stroke="#000000" points="178,-208 178,-260 328,-260 328,-208 178,-208"/>
</g>
<!-- PortfolioComponent -->
<g id="node1" class="node">
<title>PortfolioComponent</title>
<polygon fill="#ffffb3" stroke="#000000" points="402.608,-122 271.392,-122 271.392,-86 402.608,-86 402.608,-122"/>
<text text-anchor="middle" x="337" y="-99.8" font-family="Times,serif" font-size="14.00" fill="#000000">PortfolioComponent</text>
</g>
<!-- PortfolioModule -->
<g id="node2" class="node">
<title>PortfolioModule</title>
<polygon fill="#8dd3c7" stroke="#000000" points="307.8259,-187 304.8259,-191 283.8259,-191 280.8259,-187 198.1741,-187 198.1741,-151 307.8259,-151 307.8259,-187"/>
<text text-anchor="middle" x="253" y="-164.8" font-family="Times,serif" font-size="14.00" fill="#000000">PortfolioModule</text>
</g>
<!-- PortfolioComponent&#45;&gt;PortfolioModule -->
<g id="edge1" class="edge">
<title>PortfolioComponent&#45;&gt;PortfolioModule</title>
<path fill="none" stroke="#000000" d="M289.5544,-122.1061C289.5544,-122.1061 289.5544,-140.991 289.5544,-140.991"/>
<polygon fill="#000000" stroke="#000000" points="286.0544,-140.9909 289.5544,-150.991 293.0544,-140.991 286.0544,-140.9909"/>
</g>
<!-- PortfolioComponent  -->
<g id="node4" class="node">
<title>PortfolioComponent </title>
<polygon fill="#fb8072" stroke="#000000" points="320.1086,-252 185.8914,-252 185.8914,-216 320.1086,-216 320.1086,-252"/>
<text text-anchor="middle" x="253" y="-229.8" font-family="Times,serif" font-size="14.00" fill="#000000">PortfolioComponent </text>
</g>
<!-- PortfolioModule&#45;&gt;PortfolioComponent  -->
<g id="edge3" class="edge">
<title>PortfolioModule&#45;&gt;PortfolioComponent </title>
<path fill="none" stroke="#000000" stroke-dasharray="5,2" d="M253,-187.1061C253,-187.1061 253,-205.991 253,-205.991"/>
<polygon fill="#000000" stroke="#000000" points="249.5001,-205.9909 253,-215.991 256.5001,-205.991 249.5001,-205.9909"/>
</g>
<!-- PortfolioRoutingModule -->
<g id="node3" class="node">
<title>PortfolioRoutingModule</title>
<polygon fill="#8dd3c7" stroke="#000000" points="247.4438,-122 244.4438,-126 223.4438,-126 220.4438,-122 92.5562,-122 92.5562,-86 247.4438,-86 247.4438,-122"/>
<text text-anchor="middle" x="170" y="-99.8" font-family="Times,serif" font-size="14.00" fill="#000000">PortfolioRoutingModule</text>
</g>
<!-- PortfolioRoutingModule&#45;&gt;PortfolioModule -->
<g id="edge2" class="edge">
<title>PortfolioRoutingModule&#45;&gt;PortfolioModule</title>
<path fill="none" stroke="#000000" d="M222.7795,-122.1061C222.7795,-122.1061 222.7795,-140.991 222.7795,-140.991"/>
<polygon fill="#000000" stroke="#000000" points="219.2795,-140.9909 222.7795,-150.991 226.2795,-140.991 219.2795,-140.9909"/>
</g>
</g>
</svg>
